<?xml version="1.0" standalone="no"?>
<!DOCTYPE svg PUBLIC "-//W3C//DTD SVG 20010904//EN"
 "http://www.w3.org/TR/2001/REC-SVG-20010904/DTD/svg10.dtd">
<svg version="1.0" xmlns="http://www.w3.org/2000/svg"
 width="115.000000pt" height="157.000000pt" viewBox="0 0 115.000000 157.000000"
 preserveAspectRatio="xMidYMid meet">

<g transform="translate(0.000000,157.000000) scale(0.100000,-0.100000)"
fill="#000000" stroke="none">
<path d="M410 1545 l0 -25 155 0 155 0 0 25 0 25 -155 0 -155 0 0 -25z"/>
<path d="M458 1393 c-15 -40 -21 -41 -36 -5 -10 24 -11 18 -9 -40 3 -80 18
-103 99 -161 l56 -40 49 36 c85 62 97 81 104 155 7 77 4 87 -12 46 l-11 -29
-17 33 -17 33 -16 -33 -16 -33 -15 34 -15 35 -17 -35 -18 -34 -16 33 -15 33
-17 -33 -17 -33 -16 35 -15 35 -13 -32z"/>
<path d="M212 1271 c-66 -23 -113 -67 -144 -135 -23 -50 -23 -55 -23 -436 0
-365 1 -386 20 -414 25 -37 71 -56 139 -56 50 0 56 3 90 40 l36 40 0 263 0
262 30 52 c39 69 159 163 206 163 66 0 213 -136 233 -214 7 -27 11 -139 11
-286 l0 -241 32 -41 33 -40 72 4 c67 3 76 6 106 36 l32 32 3 383 c3 413 1 438
-49 506 -31 44 -110 87 -176 97 l-43 7 0 -41 c0 -39 1 -40 47 -51 63 -16 102
-46 124 -95 17 -38 19 -72 19 -403 0 -415 4 -396 -84 -391 l-51 3 -5 275 c-5
265 -6 277 -29 320 -34 63 -118 140 -201 183 l-72 37 -70 -37 c-94 -49 -170
-120 -205 -191 l-28 -57 -3 -267 -3 -268 -48 0 c-87 0 -82 -26 -79 407 3 369
4 382 24 410 30 40 78 70 124 78 39 7 40 8 40 46 0 36 -2 39 -27 39 -16 -1
-52 -9 -81 -19z"/>
<path d="M260 200 l0 -30 311 0 310 0 -3 28 -3 27 -307 3 -308 2 0 -30z"/>
<path d="M190 50 l0 -50 380 0 380 0 0 50 0 50 -380 0 -380 0 0 -50z"/>
</g>
</svg>
